<?xml version="1.0" encoding="UTF-8" standalone="no"?>
<!DOCTYPE svg PUBLIC "-//W3C//DTD SVG 1.1//EN"
 "http://www.w3.org/Graphics/SVG/1.1/DTD/svg11.dtd">
<!-- Generated by graphviz version 2.38.0 (20140413.2041)
 -->
<!-- Title: %3 Pages: 1 -->
<svg width="655pt" height="732pt"
 viewBox="0.00 0.00 655.00 732.00" xmlns="http://www.w3.org/2000/svg" xmlns:xlink="http://www.w3.org/1999/xlink">
<g id="graph0" class="graph" transform="scale(1 1) rotate(0) translate(4 728)">
<title>%3</title>
<polygon fill="white" stroke="none" points="-4,4 -4,-728 651,-728 651,4 -4,4"/>
<!-- gas -->
<g id="node1" class="node"><title>gas</title>
<polygon fill="lightgrey" stroke="lightgrey" points="624,-652 329,-652 329,-630 624,-630 624,-652"/>
<text text-anchor="middle" x="476.5" y="-638.5" font-family="Times New Roman,serif" font-size="10.00">gas</text>
</g>
<!-- chp -->
<g id="node14" class="node"><title>chp</title>
<polygon fill="none" stroke="black" points="474.5,-582 420.5,-582 420.5,-546 474.5,-546 474.5,-582"/>
<text text-anchor="middle" x="447.5" y="-561.5" font-family="Times New Roman,serif" font-size="10.00">chp</text>
</g>
<!-- gas&#45;&gt;chp -->
<g id="edge3" class="edge"><title>gas&#45;&gt;chp</title>
<path fill="none" stroke="black" d="M472.589,-629.885C468.819,-620.135 462.949,-604.955 457.835,-591.728"/>
<polygon fill="black" stroke="black" points="460.99,-590.182 454.119,-582.117 454.461,-592.706 460.99,-590.182"/>
</g>
<!-- gas_boiler -->
<g id="node15" class="node"><title>gas_boiler</title>
<polygon fill="none" stroke="black" points="535,-498 476,-498 476,-462 535,-462 535,-498"/>
<text text-anchor="middle" x="505.5" y="-477.5" font-family="Times New Roman,serif" font-size="10.00">gas_boiler</text>
</g>
<!-- gas&#45;&gt;gas_boiler -->
<g id="edge2" class="edge"><title>gas&#45;&gt;gas_boiler</title>
<path fill="none" stroke="black" d="M478.403,-629.568C482.834,-605.274 493.959,-544.277 500.494,-508.448"/>
<polygon fill="black" stroke="black" points="504.011,-508.67 502.362,-498.205 497.124,-507.414 504.011,-508.67"/>
</g>
<!-- electricity -->
<g id="node2" class="node"><title>electricity</title>
<polygon fill="lightgrey" stroke="lightgrey" points="419,-491 124,-491 124,-469 419,-469 419,-491"/>
<text text-anchor="middle" x="271.5" y="-477.5" font-family="Times New Roman,serif" font-size="10.00">electricity</text>
</g>
<!-- elec_sell -->
<g id="node8" class="node"><title>elec_sell</title>
<polygon fill="none" stroke="black" points="304.271,-426 254.729,-426 237.085,-390 321.915,-390 304.271,-426"/>
<text text-anchor="middle" x="279.5" y="-405.5" font-family="Times New Roman,serif" font-size="10.00">elec_sell</text>
</g>
<!-- electricity&#45;&gt;elec_sell -->
<g id="edge7" class="edge"><title>electricity&#45;&gt;elec_sell</title>
<path fill="none" stroke="black" d="M272.646,-468.971C273.625,-460.403 275.08,-447.671 276.398,-436.139"/>
<polygon fill="black" stroke="black" points="279.894,-436.373 277.553,-426.04 272.94,-435.578 279.894,-436.373"/>
</g>
<!-- heatpump_a
ir -->
<g id="node13" class="node"><title>heatpump_a
ir</title>
<polygon fill="none" stroke="black" points="411.5,-426 345.5,-426 345.5,-390 411.5,-390 411.5,-426"/>
<text text-anchor="middle" x="378.5" y="-411" font-family="Times New Roman,serif" font-size="10.00">heatpump_a</text>
<text text-anchor="middle" x="378.5" y="-400" font-family="Times New Roman,serif" font-size="10.00">ir</text>
</g>
<!-- electricity&#45;&gt;heatpump_a
ir -->
<g id="edge9" class="edge"><title>electricity&#45;&gt;heatpump_a
ir</title>
<path fill="none" stroke="black" d="M286.83,-468.971C301.663,-459.267 324.664,-444.22 343.915,-431.626"/>
<polygon fill="black" stroke="black" points="346.001,-434.444 352.453,-426.04 342.169,-428.586 346.001,-434.444"/>
</g>
<!-- electrolys
is -->
<g id="node16" class="node"><title>electrolys
is</title>
<polygon fill="none" stroke="black" points="219.5,-426 163.5,-426 163.5,-390 219.5,-390 219.5,-426"/>
<text text-anchor="middle" x="191.5" y="-411" font-family="Times New Roman,serif" font-size="10.00">electrolys</text>
<text text-anchor="middle" x="191.5" y="-400" font-family="Times New Roman,serif" font-size="10.00">is</text>
</g>
<!-- electricity&#45;&gt;electrolys
is -->
<g id="edge8" class="edge"><title>electricity&#45;&gt;electrolys
is</title>
<path fill="none" stroke="black" d="M260.038,-468.971C249.248,-459.529 232.676,-445.029 218.531,-432.652"/>
<polygon fill="black" stroke="black" points="220.805,-429.991 210.974,-426.04 216.195,-435.259 220.805,-429.991"/>
</g>
<!-- dhs_grid_p
ump -->
<g id="node17" class="node"><title>dhs_grid_p
ump</title>
<polygon fill="none" stroke="black" points="179,-166 116,-166 116,-130 179,-130 179,-166"/>
<text text-anchor="middle" x="147.5" y="-151" font-family="Times New Roman,serif" font-size="10.00">dhs_grid_p</text>
<text text-anchor="middle" x="147.5" y="-140" font-family="Times New Roman,serif" font-size="10.00">ump</text>
</g>
<!-- electricity&#45;&gt;dhs_grid_p
ump -->
<g id="edge10" class="edge"><title>electricity&#45;&gt;dhs_grid_p
ump</title>
<path fill="none" stroke="black" d="M179.114,-468.998C104.032,-455.137 10.5,-422.181 10.5,-344 10.5,-344 10.5,-344 10.5,-277 10.5,-223.851 66.2331,-186.429 106.604,-166.294"/>
<polygon fill="black" stroke="black" points="108.232,-169.394 115.725,-161.904 105.197,-163.087 108.232,-169.394"/>
</g>
<!-- heat_generation -->
<g id="node3" class="node"><title>heat_generation</title>
<polygon fill="lightgrey" stroke="lightgrey" points="647,-354 352,-354 352,-332 647,-332 647,-354"/>
<text text-anchor="middle" x="499.5" y="-340.5" font-family="Times New Roman,serif" font-size="10.00">heat_generation</text>
</g>
<!-- thermal_st
orage -->
<g id="node18" class="node"><title>thermal_st
orage</title>
<path fill="none" stroke="black" d="M403,-296C403,-296 368,-296 368,-296 362,-296 356,-290 356,-284 356,-284 356,-272 356,-272 356,-266 362,-260 368,-260 368,-260 403,-260 403,-260 409,-260 415,-266 415,-272 415,-272 415,-284 415,-284 415,-290 409,-296 403,-296"/>
<text text-anchor="middle" x="385.5" y="-281" font-family="Times New Roman,serif" font-size="10.00">thermal_st</text>
<text text-anchor="middle" x="385.5" y="-270" font-family="Times New Roman,serif" font-size="10.00">orage</text>
</g>
<!-- heat_generation&#45;&gt;thermal_st
orage -->
<g id="edge15" class="edge"><title>heat_generation&#45;&gt;thermal_st
orage</title>
<path fill="none" stroke="black" d="M481.184,-331.878C465.862,-323.41 443.478,-311.04 424.212,-300.393"/>
<polygon fill="black" stroke="black" points="425.779,-297.26 415.333,-295.487 422.393,-303.387 425.779,-297.26"/>
</g>
<!-- storage_out -->
<g id="node4" class="node"><title>storage_out</title>
<polygon fill="lightgrey" stroke="lightgrey" points="433,-224 138,-224 138,-202 433,-202 433,-224"/>
<text text-anchor="middle" x="285.5" y="-210.5" font-family="Times New Roman,serif" font-size="10.00">storage_out</text>
</g>
<!-- storage_out&#45;&gt;dhs_grid_p
ump -->
<g id="edge17" class="edge"><title>storage_out&#45;&gt;dhs_grid_p
ump</title>
<path fill="none" stroke="black" d="M263.328,-201.878C243.128,-192.656 212.789,-178.806 188.229,-167.593"/>
<polygon fill="black" stroke="black" points="189.682,-164.41 179.132,-163.441 186.775,-170.777 189.682,-164.41"/>
</g>
<!-- heat_grid -->
<g id="node5" class="node"><title>heat_grid</title>
<polygon fill="lightgrey" stroke="lightgrey" points="295,-94 0,-94 0,-72 295,-72 295,-94"/>
<text text-anchor="middle" x="147.5" y="-80.5" font-family="Times New Roman,serif" font-size="10.00">heat_grid</text>
</g>
<!-- demand -->
<g id="node9" class="node"><title>demand</title>
<polygon fill="none" stroke="black" points="170.814,-36 124.186,-36 107.58,-1.77636e-014 187.42,-3.55271e-015 170.814,-36"/>
<text text-anchor="middle" x="147.5" y="-15.5" font-family="Times New Roman,serif" font-size="10.00">demand</text>
</g>
<!-- heat_grid&#45;&gt;demand -->
<g id="edge19" class="edge"><title>heat_grid&#45;&gt;demand</title>
<path fill="none" stroke="black" d="M147.5,-71.878C147.5,-64.978 147.5,-55.4869 147.5,-46.4483"/>
<polygon fill="black" stroke="black" points="151,-46.228 147.5,-36.228 144,-46.2281 151,-46.228"/>
</g>
<!-- h2 -->
<g id="node6" class="node"><title>h2</title>
<polygon fill="lightgrey" stroke="lightgrey" points="334,-354 39,-354 39,-332 334,-332 334,-354"/>
<text text-anchor="middle" x="186.5" y="-340.5" font-family="Times New Roman,serif" font-size="10.00">h2</text>
</g>
<!-- h2_sell -->
<g id="node7" class="node"><title>h2_sell</title>
<polygon fill="none" stroke="black" points="208.357,-296 164.643,-296 149.075,-260 223.925,-260 208.357,-296"/>
<text text-anchor="middle" x="186.5" y="-275.5" font-family="Times New Roman,serif" font-size="10.00">h2_sell</text>
</g>
<!-- h2&#45;&gt;h2_sell -->
<g id="edge21" class="edge"><title>h2&#45;&gt;h2_sell</title>
<path fill="none" stroke="black" d="M186.5,-331.878C186.5,-324.978 186.5,-315.487 186.5,-306.448"/>
<polygon fill="black" stroke="black" points="190,-306.228 186.5,-296.228 183,-306.228 190,-306.228"/>
</g>
<!-- pv -->
<g id="node10" class="node"><title>pv</title>
<polygon fill="none" stroke="black" points="201.732,-546 233.268,-546 244.5,-582 190.5,-582 201.732,-546"/>
<text text-anchor="middle" x="217.5" y="-561.5" font-family="Times New Roman,serif" font-size="10.00">pv</text>
</g>
<!-- pv&#45;&gt;electricity -->
<g id="edge6" class="edge"><title>pv&#45;&gt;electricity</title>
<path fill="none" stroke="black" d="M228.952,-545.61C237.806,-532.164 250.045,-513.58 259.124,-499.793"/>
<polygon fill="black" stroke="black" points="262.248,-501.414 264.824,-491.137 256.401,-497.564 262.248,-501.414"/>
</g>
<!-- electricit
y_grid -->
<g id="node11" class="node"><title>electricit
y_grid</title>
<polygon fill="none" stroke="black" points="283.299,-534 341.701,-534 362.5,-594 262.5,-594 283.299,-534"/>
<text text-anchor="middle" x="312.5" y="-567" font-family="Times New Roman,serif" font-size="10.00">electricit</text>
<text text-anchor="middle" x="312.5" y="-556" font-family="Times New Roman,serif" font-size="10.00">y_grid</text>
</g>
<!-- electricit
y_grid&#45;&gt;electricity -->
<g id="edge4" class="edge"><title>electricit
y_grid&#45;&gt;electricity</title>
<path fill="none" stroke="black" d="M297.929,-533.859C292.336,-522.673 286.099,-510.198 281.089,-500.178"/>
<polygon fill="black" stroke="black" points="284.16,-498.493 276.557,-491.114 277.899,-501.623 284.16,-498.493"/>
</g>
<!-- gas_grid -->
<g id="node12" class="node"><title>gas_grid</title>
<polygon fill="none" stroke="black" points="451.34,-688 501.66,-688 519.581,-724 433.419,-724 451.34,-688"/>
<text text-anchor="middle" x="476.5" y="-703.5" font-family="Times New Roman,serif" font-size="10.00">gas_grid</text>
</g>
<!-- gas_grid&#45;&gt;gas -->
<g id="edge1" class="edge"><title>gas_grid&#45;&gt;gas</title>
<path fill="none" stroke="black" d="M476.5,-687.785C476.5,-679.97 476.5,-670.668 476.5,-662.495"/>
<polygon fill="black" stroke="black" points="480,-662.297 476.5,-652.297 473,-662.297 480,-662.297"/>
</g>
<!-- heatpump_a
ir&#45;&gt;heat_generation -->
<g id="edge13" class="edge"><title>heatpump_a
ir&#45;&gt;heat_generation</title>
<path fill="none" stroke="black" d="M411.244,-389.951C429.787,-380.297 452.771,-368.33 470.635,-359.029"/>
<polygon fill="black" stroke="black" points="472.719,-361.89 479.972,-354.167 469.486,-355.681 472.719,-361.89"/>
</g>
<!-- chp&#45;&gt;electricity -->
<g id="edge5" class="edge"><title>chp&#45;&gt;electricity</title>
<path fill="none" stroke="black" d="M420.386,-550.367C388.528,-535.525 335.79,-510.953 302.384,-495.389"/>
<polygon fill="black" stroke="black" points="303.638,-492.112 293.096,-491.062 300.682,-498.457 303.638,-492.112"/>
</g>
<!-- chp&#45;&gt;heat_generation -->
<g id="edge12" class="edge"><title>chp&#45;&gt;heat_generation</title>
<path fill="none" stroke="black" d="M450.276,-545.749C453.633,-525.565 459.686,-491.19 466.5,-462 474.64,-427.128 486.344,-387.094 493.405,-363.766"/>
<polygon fill="black" stroke="black" points="496.806,-364.612 496.378,-354.026 490.111,-362.569 496.806,-364.612"/>
</g>
<!-- gas_boiler&#45;&gt;heat_generation -->
<g id="edge14" class="edge"><title>gas_boiler&#45;&gt;heat_generation</title>
<path fill="none" stroke="black" d="M504.74,-461.902C503.631,-436.945 501.573,-390.632 500.393,-364.085"/>
<polygon fill="black" stroke="black" points="503.887,-363.873 499.946,-354.038 496.894,-364.184 503.887,-363.873"/>
</g>
<!-- electrolys
is&#45;&gt;heat_generation -->
<g id="edge11" class="edge"><title>electrolys
is&#45;&gt;heat_generation</title>
<path fill="none" stroke="black" d="M219.892,-393.059C222.761,-391.922 225.663,-390.876 228.5,-390 281.829,-373.538 342.992,-362.516 393.701,-355.4"/>
<polygon fill="black" stroke="black" points="394.266,-358.855 403.697,-354.029 393.314,-351.92 394.266,-358.855"/>
</g>
<!-- electrolys
is&#45;&gt;h2 -->
<g id="edge20" class="edge"><title>electrolys
is&#45;&gt;h2</title>
<path fill="none" stroke="black" d="M190.134,-389.785C189.514,-381.97 188.775,-372.668 188.127,-364.495"/>
<polygon fill="black" stroke="black" points="191.598,-363.989 187.317,-354.297 184.619,-364.543 191.598,-363.989"/>
</g>
<!-- dhs_grid_p
ump&#45;&gt;heat_grid -->
<g id="edge18" class="edge"><title>dhs_grid_p
ump&#45;&gt;heat_grid</title>
<path fill="none" stroke="black" d="M147.5,-129.785C147.5,-121.97 147.5,-112.668 147.5,-104.495"/>
<polygon fill="black" stroke="black" points="151,-104.297 147.5,-94.2974 144,-104.297 151,-104.297"/>
</g>
<!-- thermal_st
orage&#45;&gt;storage_out -->
<g id="edge16" class="edge"><title>thermal_st
orage&#45;&gt;storage_out</title>
<path fill="none" stroke="black" d="M358.439,-259.951C343.398,-250.476 324.821,-238.772 310.18,-229.548"/>
<polygon fill="black" stroke="black" points="311.965,-226.537 301.639,-224.167 308.234,-232.459 311.965,-226.537"/>
</g>
</g>
</svg>
